<svg width="100%" height="100%" id="svg" viewBox="0 0 1440 390" xmlns="http://www.w3.org/2000/svg"
    class="transition duration-300 ease-in-out delay-150">
    <defs>
        <linearGradient id="gradient" x1="6%" y1="26%" x2="94%" y2="74%">
            <stop offset="5%" stop-color="#60a5fa"></stop>
            <stop offset="95%" stop-color="#8ED1FC"></stop>
        </linearGradient>
    </defs>
    <path
        d="M 0,400 C 0,400 0,200 0,200 C 77.18648748159058,175.19753313696611 154.37297496318115,150.39506627393226 206,158 C 257.62702503681885,165.60493372606774 283.694587628866,205.6172680412371 333,196 C 382.305412371134,186.3827319587629 454.84867452135495,127.13586156111927 533,137 C 611.151325478645,146.86413843888073 694.9107142857143,225.83928571428578 753,251 C 811.0892857142857,276.1607142857142 843.5084683357877,247.50699558173784 888,248 C 932.4915316642123,248.49300441826216 989.0554123711343,278.13273195876286 1050,265 C 1110.9445876288657,251.8672680412371 1176.269882179676,195.96207658321063 1242,178 C 1307.730117820324,160.03792341678937 1373.8650589101621,180.01896170839467 1440,200 C 1440,200 1440,400 1440,400 Z"
        stroke="none" stroke-width="0" fill="url(#gradient)" fill-opacity="1"
        class="transition-all duration-300 ease-in-out delay-150 path-0"></path>
</svg>