<svg id="svg" viewBox="0 0 1440 690" xmlns="http://www.w3.org/2000/svg"
    class="transition duration-300 ease-in-out delay-150"  preserveAspectRatio="none">
    <defs>
        <linearGradient id="gradient" x1="6%" y1="26%" x2="94%" y2="74%">
            <stop offset="5%" stop-color="#60a5fa"></stop>
            <stop offset="95%" stop-color="#8ED1FC"></stop>
        </linearGradient>
    </defs>
    <path
        d="M 0,700 C 0,700 0,350 0,350 C 60.06757923295105,370.98009618941916 120.1351584659021,391.9601923788383 166,392 C 211.8648415340979,392.0398076211617 243.52694536934274,371.1393266740659 295,343 C 346.47305463065726,314.8606733259341 417.75706005672714,279.48250092489826 483,310 C 548.2429399432729,340.51749907510174 607.4448144037489,436.93066962634106 662,432 C 716.5551855962511,427.06933037365894 766.4636823282772,320.7948205697373 808,289 C 849.5363176717228,257.2051794302627 882.7004562831422,299.89004809470964 940,311 C 997.2995437168578,322.10995190529036 1078.734492539154,301.6449870514243 1133,304 C 1187.265507460846,306.3550129485757 1214.3615735602416,331.53000369959307 1261,343 C 1307.6384264397584,354.46999630040693 1373.8192132198792,352.23499815020347 1440,350 C 1440,350 1440,700 1440,700 Z"
        stroke="none" stroke-width="0" fill="url(#gradient)" fill-opacity="1"
        class="transition-all duration-300 ease-in-out delay-150 path-0" transform="rotate(-180 720 350)"></path>
</svg>